<svg width="38" height="38" viewBox="0 0 38 38" fill="none" xmlns="http://www.w3.org/2000/svg">
<g clip-path="url(#clip0_402_49)">
<path d="M1 19C1 9.05887 9.05887 1 19 1C28.9411 1 37 9.05887 37 19C37 28.9411 28.9411 37 19 37C9.05887 37 1 28.9411 1 19Z" fill="white"/>
<path fill-rule="evenodd" clip-rule="evenodd" d="M22.9502 8.2C23.1386 9.47997 22.6176 10.7339 21.9304 11.6211C21.1951 12.5727 19.9277 13.3087 18.6997 13.2703C18.4756 12.0449 19.0495 10.7822 19.7479 9.93347C20.514 8.99672 21.8269 8.27806 22.9502 8.2ZM26.639 26.2162C27.2721 25.246 27.5086 24.7566 28 23.6612C24.4257 22.302 23.853 17.2205 27.3903 15.2702C26.3114 13.9171 24.7952 13.1328 23.364 13.1328C22.3328 13.1328 21.6262 13.4019 20.9839 13.6465C20.4486 13.8504 19.9579 14.0373 19.3611 14.0373C18.7162 14.0373 18.1451 13.8325 17.5471 13.6181C16.89 13.3825 16.2004 13.1352 15.3447 13.1352C13.7386 13.1352 12.029 14.1166 10.9452 15.7943C9.42162 18.1572 9.6815 22.5993 12.1522 26.3835C13.0353 27.7378 14.2152 29.2594 15.7585 29.273C16.3989 29.2794 16.825 29.0882 17.2861 28.8814C17.8139 28.6447 18.3876 28.3874 19.3808 28.3821C20.3799 28.3761 20.9446 28.6366 21.4653 28.8768C21.9146 29.084 22.3313 29.2762 22.9662 29.2693C24.5107 29.2569 25.7559 27.5705 26.639 26.2162Z" fill="#0B0B0A"/>
</g>
<rect x="0.5" y="0.5" width="37" height="37" rx="18.5" stroke="#F3F2F7"/>
<defs>
<clipPath id="clip0_402_49">
<rect x="1" y="1" width="36" height="36" rx="18" fill="white"/>
</clipPath>
</defs>
</svg>
