<svg width="25" height="24" viewBox="0 0 25 24" fill="none" xmlns="http://www.w3.org/2000/svg">
<path d="M16.938 2V5M8.93799 2V5M21.688 17.6H4.18799M16.938 3.5C20.268 3.68 21.938 4.95 21.938 9.65V15.83C21.938 19.95 20.938 22.01 15.938 22.01H9.93799C4.93799 22.01 3.93799 19.95 3.93799 15.83V9.65C3.93799 4.95 5.60799 3.69 8.93799 3.5H16.938Z" stroke="#131117" stroke-width="1.5" stroke-miterlimit="10" stroke-linecap="round" stroke-linejoin="round"/>
<path d="M12.938 8.25C11.708 8.25 10.668 8.92 10.668 10.22C10.668 10.84 10.958 11.31 11.398 11.61C10.788 11.97 10.438 12.55 10.438 13.23C10.438 14.47 11.388 15.24 12.938 15.24C14.478 15.24 15.438 14.47 15.438 13.23C15.438 12.55 15.088 11.96 14.468 11.61C14.918 11.3 15.198 10.84 15.198 10.22C15.198 8.92 14.168 8.25 12.938 8.25ZM12.938 11.09C12.418 11.09 12.038 10.78 12.038 10.29C12.038 9.79 12.418 9.5 12.938 9.5C13.458 9.5 13.838 9.79 13.838 10.29C13.838 10.78 13.458 11.09 12.938 11.09ZM12.938 14C12.278 14 11.798 13.67 11.798 13.07C11.798 12.47 12.278 12.15 12.938 12.15C13.598 12.15 14.078 12.48 14.078 13.07C14.078 13.67 13.598 14 12.938 14Z" fill="#131117"/>
</svg>
