<svg width="20" height="20" viewBox="0 0 20 20" fill="none" xmlns="http://www.w3.org/2000/svg">
<path d="M18.125 6.66667C18.125 7.00834 17.8417 7.29167 17.5 7.29167H2.5C2.15833 7.29167 1.875 7.00834 1.875 6.66667C1.875 6.325 2.15833 6.04167 2.5 6.04167H3.35L3.66667 4.53334C3.96667 3.075 4.59167 1.73334 7.075 1.73334H12.925C15.4083 1.73334 16.0333 3.075 16.3333 4.53334L16.65 6.04167H17.5C17.8417 6.04167 18.125 6.325 18.125 6.66667Z" fill="#6347EB"/>
<path d="M18.4834 11.3833C18.3584 10.0083 17.9917 8.54166 15.3167 8.54166H4.68336C2.00836 8.54166 1.65003 10.0083 1.5167 11.3833L1.05003 16.4583C0.991697 17.0917 1.20003 17.725 1.63336 18.2C2.07503 18.6833 2.70003 18.9583 3.3667 18.9583H4.93336C6.28336 18.9583 6.5417 18.1833 6.70836 17.675L6.87503 17.175C7.0667 16.6 7.1167 16.4583 7.8667 16.4583H12.1334C12.8834 16.4583 12.9084 16.5417 13.125 17.175L13.2917 17.675C13.4584 18.1833 13.7167 18.9583 15.0667 18.9583H16.6334C17.2917 18.9583 17.925 18.6833 18.3667 18.2C18.8 17.725 19.0084 17.0917 18.95 16.4583L18.4834 11.3833ZM7.50003 13.125H5.00003C4.65836 13.125 4.37503 12.8417 4.37503 12.5C4.37503 12.1583 4.65836 11.875 5.00003 11.875H7.50003C7.8417 11.875 8.12503 12.1583 8.12503 12.5C8.12503 12.8417 7.8417 13.125 7.50003 13.125ZM15 13.125H12.5C12.1584 13.125 11.875 12.8417 11.875 12.5C11.875 12.1583 12.1584 11.875 12.5 11.875H15C15.3417 11.875 15.625 12.1583 15.625 12.5C15.625 12.8417 15.3417 13.125 15 13.125Z" fill="#6347EB"/>
</svg>
