<svg width="25" height="25" viewBox="0 0 25 25" fill="none" xmlns="http://www.w3.org/2000/svg">
<path fill-rule="evenodd" clip-rule="evenodd" d="M21.1892 0.0171087C21.1354 0.029516 20.9704 0.063221 20.8226 0.0919436C20.6747 0.120666 20.3448 0.24347 20.0894 0.364857L19.625 0.585502L13.4348 6.77228L7.2445 12.959L6.30489 15.785C5.4695 18.2974 5.36783 18.6377 5.38845 18.8521C5.40493 19.0236 5.45376 19.1456 5.55748 19.2745C5.63769 19.3742 5.7659 19.4864 5.8424 19.5239C6.2 19.6989 6.21965 19.6941 9.21898 18.6993L12.0487 17.7607L18.2395 11.5741L24.4302 5.38759L24.6502 4.92353C24.7711 4.6683 24.8994 4.33858 24.935 4.19082C24.9708 4.04305 25 3.69135 25 3.40925C25 3.12715 24.9708 2.77545 24.935 2.62768C24.8994 2.47992 24.7706 2.15127 24.649 1.89736C24.4617 1.50624 24.3634 1.37166 24.0061 1.01668C23.5454 0.559124 23.1536 0.321626 22.5578 0.138789C22.2296 0.0380155 21.4128 -0.0345724 21.1892 0.0171087ZM2.00405 1.86698C1.65197 1.96453 1.36525 2.10916 1.0509 2.34774C0.889603 2.4702 0.675219 2.67897 0.574478 2.81174C0.337169 3.12452 0.120634 3.60537 0.0533762 3.96895C0.0159835 4.17108 0 7.00484 0 13.4242C0 22.3972 0.00205293 22.5988 0.0966832 22.9687C0.149864 23.1765 0.253977 23.4602 0.328029 23.5993C0.501159 23.9243 1.07642 24.4992 1.40161 24.6722C1.54077 24.7462 1.82471 24.8502 2.03265 24.9034C2.40208 24.9978 2.60136 25 10.729 25C18.8668 25 19.0555 24.9979 19.4267 24.903C19.6354 24.8497 19.9304 24.7358 20.0822 24.6501C20.4781 24.4263 20.961 23.9187 21.1505 23.527C21.2368 23.3487 21.3358 23.0962 21.3705 22.9657C21.42 22.7797 21.4336 21.6967 21.4336 17.9415V13.1544L21.3213 12.959C21.0403 12.4699 20.4211 12.3611 19.9887 12.7248C19.9077 12.7928 19.8038 12.9173 19.7577 13.0015C19.6807 13.142 19.672 13.5379 19.6495 17.8926C19.631 21.4762 19.6106 22.656 19.5658 22.7341C19.4764 22.8899 19.176 23.1376 19.0254 23.1797C18.9519 23.2002 15.1966 23.2171 10.6801 23.2171H2.4684L2.24791 23.0875C2.11212 23.0077 1.98074 22.8764 1.90575 22.7456L1.78409 22.5332L1.77104 13.5452C1.76181 7.19916 1.77363 4.48166 1.81127 4.30023C1.87481 3.99376 2.04863 3.77068 2.31976 3.64763C2.50761 3.56234 2.78793 3.55789 8.04969 3.55687C11.8372 3.55614 13.6255 3.53943 13.7197 3.50382C13.8883 3.44017 14.1112 3.23462 14.2038 3.05755C14.2417 2.98496 14.2728 2.81213 14.2728 2.67341C14.2728 2.3473 14.1199 2.07057 13.8535 1.9146L13.6532 1.79727L7.93858 1.80162C3.53334 1.80499 2.17361 1.81998 2.00405 1.86698Z" fill="black"/>
</svg>
