<svg width="30" height="30" viewBox="0 0 30 30" fill="none" xmlns="http://www.w3.org/2000/svg">
<path fill-rule="evenodd" clip-rule="evenodd" d="M25.427 0.0205304C25.3625 0.0354192 25.1645 0.0758652 24.9871 0.110332C24.8097 0.144799 24.4137 0.292164 24.1073 0.437828L23.55 0.702603L16.1217 8.12673L8.6934 15.5508L7.56587 18.9419C6.56339 21.9569 6.44139 22.3652 6.46614 22.6225C6.48591 22.8283 6.54451 22.9748 6.66897 23.1294C6.76523 23.249 6.91908 23.3837 7.01088 23.4286C7.44 23.6387 7.46357 23.633 11.0628 22.4391L14.4585 21.3128L21.8873 13.8889L29.3163 6.46511L29.5802 5.90824C29.7254 5.60196 29.8792 5.2063 29.922 5.02898C29.9649 4.85166 30 4.42962 30 4.0911C30 3.75258 29.9649 3.33054 29.922 3.15322C29.8792 2.9759 29.7247 2.58153 29.5788 2.27683C29.354 1.80748 29.2361 1.64599 28.8073 1.22002C28.2544 0.670949 27.7844 0.385951 27.0694 0.166546C26.6755 0.0456186 25.6954 -0.0414868 25.427 0.0205304ZM2.40486 2.24037C1.98237 2.35743 1.6383 2.531 1.26109 2.81728C1.06752 2.96424 0.810262 3.21477 0.689374 3.37409C0.404603 3.74942 0.144761 4.32645 0.0640514 4.76274C0.0191802 5.0053 0 8.40581 0 16.1091C0 26.8766 0.00246352 27.1185 0.11602 27.5624C0.179837 27.8118 0.304772 28.1523 0.393635 28.3191C0.601391 28.7091 1.2917 29.399 1.68194 29.6066C1.84893 29.6954 2.18966 29.8203 2.43917 29.8841C2.88249 29.9974 3.12163 30 12.8748 30C22.6402 30 22.8666 29.9975 23.3121 29.8836C23.5625 29.8196 23.9165 29.683 24.0986 29.5801C24.5737 29.3115 25.1532 28.7024 25.3806 28.2324C25.4841 28.0184 25.6029 27.7154 25.6446 27.5589C25.704 27.3356 25.7203 26.036 25.7203 21.5298V15.7853L25.5856 15.5508C25.2484 14.9639 24.5054 14.8333 23.9864 15.2697C23.8892 15.3514 23.7645 15.5008 23.7092 15.6017C23.6169 15.7704 23.6064 16.2455 23.5794 21.4712C23.5572 25.7714 23.5327 27.1872 23.479 27.2809C23.3717 27.4679 23.0112 27.7651 22.8305 27.8157C22.7423 27.8403 18.2359 27.8605 12.8162 27.8605H2.96209L2.69749 27.705C2.53455 27.6092 2.37688 27.4517 2.28691 27.2947L2.14091 27.0398L2.12525 16.2542C2.11417 8.63899 2.12836 5.37799 2.17353 5.16028C2.24978 4.79252 2.45835 4.52481 2.78372 4.37715C3.00913 4.27481 3.34551 4.26947 9.65962 4.26824C14.2046 4.26736 16.3506 4.24732 16.4636 4.20458C16.6659 4.1282 16.9334 3.88154 17.0445 3.66905C17.0901 3.58195 17.1273 3.37456 17.1273 3.20809C17.1273 2.81676 16.9438 2.48469 16.6242 2.29752L16.3838 2.15672L9.5263 2.16194C4.24001 2.16599 2.60834 2.18398 2.40486 2.24037Z" fill="black"/>
</svg>
