<svg width="18" height="32" viewBox="0 0 18 32" fill="none" xmlns="http://www.w3.org/2000/svg">
<path d="M13.846 6.26087H17.3075C17.6897 6.26087 17.9998 5.94922 17.9998 5.56522V0.878609C17.9998 0.514087 17.7208 0.210783 17.3594 0.185043C16.258 0.106435 14.1063 0 12.559 0C8.30761 0 5.53841 2.56 5.53841 7.21252V11.8261H0.692301C0.310151 11.8261 0 12.1377 0 12.5217V17.3913C0 17.7753 0.310151 18.087 0.692301 18.087H5.53841V31.3043C5.53841 31.6883 5.84856 32 6.23071 32H11.0768C11.459 32 11.7691 31.6883 11.7691 31.3043V18.087H16.7689C17.122 18.087 17.4183 17.8205 17.4571 17.4678L17.9957 12.5983C18.0414 12.1864 17.7201 11.8261 17.3075 11.8261H11.7691V8.34783C11.7691 7.19513 12.6989 6.26087 13.846 6.26087Z" fill="#1FAB89"/>
</svg>
