<svg width="32" height="32" viewBox="0 0 32 32" fill="none" xmlns="http://www.w3.org/2000/svg">
<path fill-rule="evenodd" clip-rule="evenodd" d="M14.6635 0.0313231C11.3571 0.350446 8.43345 1.52636 5.9319 3.54324C3.24379 5.71051 1.27273 8.78627 0.447987 12.1004C0.0802411 13.5782 0 14.2789 0 16.012C0 17.7451 0.0802411 18.4458 0.447987 19.9236C1.13638 22.69 2.60837 25.2779 4.66293 27.3338C6.71742 29.3898 9.30346 30.8628 12.068 31.5517C13.5447 31.9197 14.245 32 15.9769 32C17.7088 32 18.409 31.9197 19.8857 31.5517C22.6503 30.8628 25.2363 29.3898 27.2908 27.3338C28.9298 25.6937 30.1812 23.7457 31.0059 21.5508C31.1611 21.1377 31.3883 20.3914 31.511 19.8923C31.8987 18.3141 31.9385 17.9174 31.9708 15.3079L32 12.9453H23.9884H15.9769V16.012V19.0787H20.6675C23.2473 19.0787 25.3581 19.0998 25.3581 19.1256C25.3581 19.1515 25.2992 19.3275 25.2274 19.5168C24.7242 20.8414 23.8778 22.1285 22.8783 23.0889C22.3158 23.6293 21.933 23.9358 21.3242 24.333C20.355 24.9655 19.0983 25.477 17.9157 25.7205C17.1311 25.882 15.598 25.9425 14.836 25.8421C13.6279 25.6828 12.659 25.3941 11.6167 24.8829C9.57533 23.8814 7.90903 22.1631 6.98954 20.1113C6.53355 19.0938 6.35293 18.4814 6.19145 17.405C5.97443 15.9587 6.13447 14.201 6.60591 12.8514C7.48875 10.3245 9.27338 8.29072 11.6167 7.14115C12.659 6.62989 13.6279 6.34118 14.836 6.1819C15.5967 6.08164 17.1294 6.1421 17.922 6.30357C19.1652 6.55691 20.458 7.09534 21.4731 7.78271C21.9809 8.12655 22.0008 8.134 22.1095 8.02241C22.259 7.86889 25.7317 3.34728 25.7309 3.30717C25.7305 3.28996 25.4857 3.10689 25.1868 2.90036C23.6656 1.84899 22.1453 1.11599 20.4799 0.630891C18.9622 0.188725 17.4811 -0.0143017 15.883 0.000781419C15.3327 0.00591342 14.7839 0.0196822 14.6635 0.0313231Z" fill="#1FAB89"/>
</svg>
