<svg width="107" height="110" viewBox="0 0 107 110" fill="none" xmlns="http://www.w3.org/2000/svg">
<path d="M14.1863 50.7C10.453 50.7 7.62967 49.65 5.71634 47.55C3.803 45.4033 2.84634 42.3467 2.84634 38.38V35.58H10.1263V38.94C10.1263 42.1133 11.4563 43.7 14.1163 43.7C15.423 43.7 16.403 43.3267 17.0563 42.58C17.7563 41.7867 18.1063 40.5267 18.1063 38.8C18.1063 36.7467 17.6397 34.95 16.7063 33.41C15.773 31.8233 14.0463 29.9333 11.5263 27.74C8.353 24.94 6.13634 22.42 4.87634 20.18C3.61634 17.8933 2.98634 15.3267 2.98634 12.48C2.98634 8.60667 3.96634 5.62 5.92634 3.52C7.88634 1.37333 10.733 0.299997 14.4663 0.299997C18.153 0.299997 20.9297 1.37333 22.7963 3.52C24.7097 5.62 25.6663 8.65333 25.6663 12.62V14.65H18.3863V12.13C18.3863 10.45 18.0597 9.23666 17.4063 8.49C16.753 7.69666 15.7963 7.3 14.5363 7.3C11.9697 7.3 10.6863 8.86333 10.6863 11.99C10.6863 13.7633 11.153 15.42 12.0863 16.96C13.0663 18.5 14.8163 20.3667 17.3363 22.56C20.5563 25.36 22.773 27.9033 23.9863 30.19C25.1997 32.4767 25.8063 35.16 25.8063 38.24C25.8063 42.2533 24.803 45.3333 22.7963 47.48C20.8363 49.6267 17.9663 50.7 14.1863 50.7ZM36.0582 0.999997H46.4882L54.4682 50H46.7682L45.3682 40.27V40.41H36.6182L35.2182 50H28.0782L36.0582 0.999997ZM44.4582 33.76L41.0282 9.54H40.8882L37.5282 33.76H44.4582ZM54.2835 0.999997H62.0535L67.0935 39.01H67.2335L72.2735 0.999997H79.3435L71.9235 50H61.7035L54.2835 0.999997ZM83.134 0.999997H104.134V8H90.834V20.95H101.404V27.95H90.834V43H104.134V50H83.134V0.999997ZM72.2009 67H64.1509V60H87.9509V67H79.9009V109H72.2009V67Z" fill="#1E1E1E"/>
<path fill-rule="evenodd" clip-rule="evenodd" d="M48.9323 67.3256C47.0569 67.7816 45.1535 68.9232 43.4492 70.6142C42.6114 71.4454 41.8074 72.0865 41.6625 72.039C41.5173 71.9916 40.2931 71.7374 38.9416 71.474C33.1443 70.3447 26.2371 71.3113 21.4526 73.9214C17.8584 75.8824 14.9532 78.719 13.5193 81.6678C12.4594 83.8478 11.8198 86.8787 12.045 88.6554C12.1357 89.3701 13.0528 92.4972 14.0833 95.6048C15.9773 101.317 16.7788 103.935 17.544 106.905C17.7753 107.803 18.0811 108.679 18.2238 108.851C18.4176 109.086 19.9595 109.165 24.3357 109.165C30.9915 109.165 30.9775 109.169 30.9775 107.272C30.9775 106.397 31.1379 105.986 31.7569 105.282C32.4402 104.503 32.6808 104.394 33.7099 104.394C34.367 104.394 35.1299 104.566 35.4431 104.786C36.2075 105.321 36.7531 106.453 36.7531 107.502C36.7531 109.131 36.8865 109.166 43.2372 109.161C46.3696 109.159 49.0646 109.073 49.2261 108.97C49.3878 108.868 50.3749 107.077 51.4198 104.992C53.0722 101.695 53.4594 101.107 54.3905 100.485C55.275 99.8936 55.7097 99.7741 56.8884 99.7969C58.5335 99.8288 58.8416 99.5958 59.442 97.8648C59.6577 97.2433 60.176 95.7951 60.5939 94.6465C62.1435 90.3884 62.1468 90.3743 61.8427 89.2433C61.3452 87.3925 59.5053 86.0624 57.4429 86.0624C56.4733 86.0624 55.4292 84.8337 54.5992 82.716L53.8291 80.751V74.2797C53.8291 68.3295 53.7921 67.7753 53.3698 67.3931C52.8213 66.8967 50.8207 66.8663 48.9323 67.3256ZM37.6554 76.8861C38.1385 77.5468 38.0986 78.3621 37.5499 79.0399C37.122 79.5682 36.8709 79.6112 33.846 79.6715C31.6653 79.7147 30.1478 79.8759 29.2196 80.1626C28.46 80.3974 27.3152 80.6443 26.6756 80.7113C25.6699 80.8168 25.4577 80.755 25.1061 80.253C24.5747 79.4944 24.5928 78.9831 25.1777 78.2398C26.1475 77.0069 31.616 75.9733 35.5837 76.2731C36.8902 76.3718 37.3867 76.5187 37.6554 76.8861ZM49.72 85.7583C50.223 86.4202 50.1268 87.5937 49.5164 88.2436C48.527 89.2965 46.5409 88.8314 46.1984 87.4669C45.9633 86.5302 46.4467 85.578 47.35 85.198C48.2525 84.8186 49.1708 85.0358 49.72 85.7583Z" fill="black"/>
<circle cx="32.5" cy="63.5" r="4.5" fill="black"/>
</svg>
