<svg width="38" height="38" viewBox="0 0 38 38" fill="none" xmlns="http://www.w3.org/2000/svg">
<g clip-path="url(#clip0_402_38)">
<path d="M1 19C1 9.05887 9.05887 1 19 1C28.9411 1 37 9.05887 37 19C37 28.9411 28.9411 37 19 37C9.05887 37 1 28.9411 1 19Z" fill="white"/>
<path d="M16.8643 29.3721V17.461L20.8927 28.8915C22.1306 28.7511 23.3713 28.6215 24.6146 28.4973V8.20001H21.349V20.5363L17.0047 8.20001H13.6V29.8H13.6216C14.7016 29.6515 15.7816 29.5084 16.8643 29.3721" fill="#E50A13"/>
</g>
<rect x="0.5" y="0.5" width="37" height="37" rx="18.5" stroke="#F3F2F7"/>
<defs>
<clipPath id="clip0_402_38">
<rect x="1" y="1" width="36" height="36" rx="18" fill="white"/>
</clipPath>
</defs>
</svg>
