<svg width="25" height="24" viewBox="0 0 25 24" fill="none" xmlns="http://www.w3.org/2000/svg">
<path d="M9.93799 22H15.938C20.938 22 22.938 20 22.938 15V9C22.938 4 20.938 2 15.938 2H9.93799C4.93799 2 2.93799 4 2.93799 9V15C2.93799 20 4.93799 22 9.93799 22Z" stroke="#131117" stroke-width="1.5" stroke-linecap="round" stroke-linejoin="round"/>
<path d="M16.438 18.5C17.538 18.5 18.438 17.6 18.438 16.5V7.5C18.438 6.4 17.538 5.5 16.438 5.5C15.338 5.5 14.438 6.4 14.438 7.5V16.5C14.438 17.6 15.328 18.5 16.438 18.5Z" stroke="#131117" stroke-width="1.5" stroke-linecap="round" stroke-linejoin="round"/>
<path d="M9.43799 18.5C10.538 18.5 11.438 17.6 11.438 16.5V13C11.438 11.9 10.538 11 9.43799 11C8.33799 11 7.43799 11.9 7.43799 13V16.5C7.43799 17.6 8.32799 18.5 9.43799 18.5Z" stroke="#131117" stroke-width="1.5" stroke-linecap="round" stroke-linejoin="round"/>
</svg>
