<svg width="36" height="36" viewBox="0 0 36 36" fill="none" xmlns="http://www.w3.org/2000/svg">
<g clip-path="url(#clip0_42_1302)">
<path d="M18 36C27.9411 36 36 27.9411 36 18C36 8.05887 27.9411 0 18 0C8.05887 0 0 8.05887 0 18C0 27.9411 8.05887 36 18 36Z" fill="#F76754"/>
<path d="M9.59998 25.8H12.6V10.2H9.59998V25.8Z" fill="#002C49"/>
<path d="M20.4094 10.2C23.7126 10.2 26.4 12.8956 26.4 16.209C26.4 19.5125 23.7126 22.2 20.4094 22.2C17.0958 22.2 14.4 19.5125 14.4 16.209C14.4 12.8956 17.0958 10.2 20.4094 10.2Z" fill="white"/>
</g>
<defs>
<clipPath id="clip0_42_1302">
<rect width="36" height="36" rx="18" fill="white"/>
</clipPath>
</defs>
</svg>
