<svg width="35" height="36" viewBox="0 0 35 36" fill="none" xmlns="http://www.w3.org/2000/svg">
<path fill-rule="evenodd" clip-rule="evenodd" d="M25.8526 6.22971C24.5399 6.55146 23.2074 7.35691 22.0144 8.55003C21.428 9.13649 20.8651 9.58882 20.7637 9.55534C20.6621 9.52185 19.8052 9.34255 18.8591 9.15669C14.801 8.35992 9.96599 9.04188 6.61683 10.8835C4.10087 12.267 2.06725 14.2684 1.06354 16.349C0.321564 17.8871 -0.126151 20.0257 0.0315245 21.2792C0.0949816 21.7834 0.736936 23.9898 1.45834 26.1824C2.78409 30.2128 3.34518 32.0596 3.88079 34.1554C4.04268 34.7888 4.25678 35.4068 4.35663 35.5285C4.49233 35.6942 5.57163 35.75 8.63497 35.75C13.2941 35.75 13.2842 35.7528 13.2842 34.4146C13.2842 33.7966 13.3965 33.5071 13.8298 33.0099C14.3081 32.4607 14.4765 32.3836 15.1969 32.3836C15.6569 32.3836 16.1909 32.5053 16.4101 32.6602C16.9452 33.0379 17.3272 33.8363 17.3272 34.5769C17.3272 35.7263 17.4205 35.7504 21.866 35.7473C24.0587 35.7457 25.9452 35.6852 26.0583 35.6127C26.1715 35.5402 26.8625 34.2769 27.5939 32.8057C28.7505 30.4795 29.0216 30.0647 29.6734 29.6257C30.2925 29.2084 30.5968 29.1241 31.4219 29.1402C32.5734 29.1627 32.7891 28.9983 33.2094 27.777C33.3604 27.3385 33.7232 26.3167 34.0157 25.5063C35.1005 22.5019 35.1027 22.492 34.8899 21.694C34.5416 20.3882 33.2537 19.4496 31.81 19.4496C31.1313 19.4496 30.4004 18.5827 29.8195 17.0886L29.2803 15.7022V11.1363C29.2803 6.93807 29.2545 6.54704 28.9588 6.27737C28.5749 5.92709 27.1745 5.90565 25.8526 6.22971ZM17.9588 12.9752C18.297 13.4414 18.269 14.0167 17.8849 14.4949C17.5854 14.8677 17.4096 14.898 15.2922 14.9405C13.7657 14.971 12.7034 15.0847 12.0537 15.287C11.522 15.4527 10.7206 15.6269 10.2729 15.6742C9.5689 15.7486 9.42037 15.705 9.17427 15.3508C8.80232 14.8156 8.81497 14.4548 9.22437 13.9304C9.90324 13.0604 13.7312 12.3312 16.5086 12.5427C17.4232 12.6124 17.7707 12.716 17.9588 12.9752ZM26.404 19.2351C26.7561 19.7021 26.6888 20.5301 26.2615 20.9886C25.5689 21.7315 24.1786 21.4034 23.9389 20.4406C23.7743 19.7797 24.1127 19.1079 24.745 18.8398C25.3768 18.5721 26.0196 18.7253 26.404 19.2351Z" fill="black"/>
<ellipse cx="14.7" cy="3.19999" rx="2.8" ry="2.8" fill="black"/>
</svg>
