<svg width="35" height="36" viewBox="0 0 35 36" fill="none" xmlns="http://www.w3.org/2000/svg">
<path fill-rule="evenodd" clip-rule="evenodd" d="M25.8526 6.35471C24.5399 6.67646 23.2074 7.48191 22.0144 8.67503C21.428 9.26149 20.8651 9.71382 20.7637 9.68034C20.6621 9.64685 19.8052 9.46755 18.8591 9.28169C14.801 8.48492 9.96599 9.16688 6.61683 11.0085C4.10087 12.392 2.06725 14.3934 1.06354 16.474C0.321564 18.0121 -0.126151 20.1507 0.0315245 21.4042C0.0949816 21.9084 0.736936 24.1148 1.45834 26.3074C2.78409 30.3378 3.34518 32.1846 3.88079 34.2804C4.04268 34.9138 4.25678 35.5318 4.35663 35.6535C4.49233 35.8192 5.57163 35.875 8.63497 35.875C13.2941 35.875 13.2842 35.8778 13.2842 34.5396C13.2842 33.9216 13.3965 33.6321 13.8298 33.1349C14.3081 32.5857 14.4765 32.5086 15.1969 32.5086C15.6569 32.5086 16.1909 32.6303 16.4101 32.7852C16.9452 33.1629 17.3272 33.9613 17.3272 34.7019C17.3272 35.8513 17.4205 35.8754 21.866 35.8723C24.0587 35.8707 25.9452 35.8102 26.0583 35.7377C26.1715 35.6652 26.8625 34.4019 27.5939 32.9307C28.7505 30.6045 29.0216 30.1897 29.6734 29.7507C30.2925 29.3334 30.5968 29.2491 31.4219 29.2652C32.5734 29.2877 32.7891 29.1233 33.2094 27.902C33.3604 27.4635 33.7232 26.4417 34.0157 25.6313C35.1005 22.6269 35.1027 22.617 34.8899 21.819C34.5416 20.5132 33.2537 19.5746 31.81 19.5746C31.1313 19.5746 30.4004 18.7077 29.8195 17.2136L29.2803 15.8272V11.2613C29.2803 7.06307 29.2545 6.67204 28.9588 6.40237C28.5749 6.05209 27.1745 6.03065 25.8526 6.35471ZM17.9588 13.1002C18.297 13.5664 18.269 14.1417 17.8849 14.6199C17.5854 14.9927 17.4096 15.023 15.2922 15.0655C13.7657 15.096 12.7034 15.2097 12.0537 15.412C11.522 15.5777 10.7206 15.7519 10.2729 15.7992C9.5689 15.8736 9.42037 15.83 9.17427 15.4758C8.80232 14.9406 8.81497 14.5798 9.22437 14.0554C9.90324 13.1854 13.7312 12.4562 16.5086 12.6677C17.4232 12.7374 17.7707 12.841 17.9588 13.1002ZM26.404 19.3601C26.7561 19.8271 26.6888 20.6551 26.2615 21.1136C25.5689 21.8565 24.1786 21.5284 23.9389 20.5656C23.7743 19.9047 24.1127 19.2329 24.745 18.9648C25.3768 18.6971 26.0196 18.8503 26.404 19.3601Z" fill="black"/>
<ellipse cx="14.7" cy="3.32499" rx="2.8" ry="2.8" fill="black"/>
</svg>
