<svg width="20" height="20" viewBox="0 0 20 20" fill="none" xmlns="http://www.w3.org/2000/svg">
<path d="M5.83329 1.66666H4.99996C2.49996 1.66666 1.66663 3.15833 1.66663 5V5.83333V17.5C1.66663 18.1917 2.44996 18.5833 2.99996 18.1667L4.42496 17.1C4.75829 16.85 5.22496 16.8833 5.52496 17.1833L6.90829 18.575C7.23329 18.9 7.76663 18.9 8.09163 18.575L9.49163 17.175C9.78329 16.8833 10.25 16.85 10.575 17.1L12 18.1667C12.55 18.575 13.3333 18.1833 13.3333 17.5V3.33333C13.3333 2.41666 14.0833 1.66666 15 1.66666H5.83329ZM9.37496 11.4583H5.62496C5.28329 11.4583 4.99996 11.175 4.99996 10.8333C4.99996 10.4917 5.28329 10.2083 5.62496 10.2083H9.37496C9.71663 10.2083 9.99996 10.4917 9.99996 10.8333C9.99996 11.175 9.71663 11.4583 9.37496 11.4583ZM9.99996 8.125H4.99996C4.65829 8.125 4.37496 7.84166 4.37496 7.5C4.37496 7.15833 4.65829 6.875 4.99996 6.875H9.99996C10.3416 6.875 10.625 7.15833 10.625 7.5C10.625 7.84166 10.3416 8.125 9.99996 8.125Z" fill="#F46040"/>
<path d="M15.0084 1.66666V2.91666C15.5584 2.91666 16.0834 3.14166 16.4667 3.51666C16.8667 3.925 17.0834 4.45 17.0834 5V7.01666C17.0834 7.63333 16.8084 7.91666 16.1834 7.91666H14.5834V3.34166C14.5834 3.10833 14.775 2.91666 15.0084 2.91666V1.66666ZM15.0084 1.66666C14.0834 1.66666 13.3334 2.41666 13.3334 3.34166V9.16666H16.1834C17.5 9.16666 18.3334 8.33333 18.3334 7.01666V5C18.3334 4.08333 17.9584 3.25 17.3584 2.64166C16.75 2.04166 15.925 1.675 15.0084 1.66666C15.0084 1.66666 15.0167 1.66666 15.0084 1.66666Z" fill="#F46040"/>
</svg>
