<svg width="25" height="24" viewBox="0 0 25 24" fill="none" xmlns="http://www.w3.org/2000/svg">
<path d="M3.93799 9.10998V14.88C3.93799 17 3.93799 17 5.93799 18.35L11.438 21.53C12.268 22.01 13.618 22.01 14.438 21.53L19.938 18.35C21.938 17 21.938 17 21.938 14.89V9.10998C21.938 6.99998 21.938 6.99999 19.938 5.64999L14.438 2.46999C13.618 1.98999 12.268 1.98999 11.438 2.46999L5.93799 5.64999C3.93799 6.99999 3.93799 6.99998 3.93799 9.10998Z" stroke="#131117" stroke-width="1.5" stroke-linecap="round" stroke-linejoin="round"/>
<path d="M12.938 15C14.5948 15 15.938 13.6568 15.938 12C15.938 10.3431 14.5948 8.99999 12.938 8.99999C11.2811 8.99999 9.93799 10.3431 9.93799 12C9.93799 13.6568 11.2811 15 12.938 15Z" stroke="#131117" stroke-width="1.5" stroke-linecap="round" stroke-linejoin="round"/>
</svg>
