<svg width="36" height="36" viewBox="0 0 36 36" fill="none" xmlns="http://www.w3.org/2000/svg">
<g clip-path="url(#clip0_402_462)">
<path d="M17.9999 0C8.05904 0 0 8.05882 0 17.9997C0 27.9416 8.05904 36 17.9999 36C27.9412 36 36 27.9416 36 17.9997C36 8.05882 27.9412 0 17.9999 0" fill="#1ED760"/>
<path d="M25.8592 25.5709C25.5406 26.0934 24.8604 26.257 24.3399 25.9386C20.1767 23.3942 14.9367 22.8196 8.76554 24.2291C8.17087 24.3655 7.57811 23.9929 7.44262 23.3984C7.30628 22.8037 7.67761 22.211 8.27355 22.0753C15.0269 20.5315 20.8197 21.1959 25.4926 24.0513C26.0136 24.3695 26.1776 25.0501 25.8592 25.5709" fill="white"/>
<path d="M28.0286 20.7434C27.6276 21.394 26.777 21.5981 26.1273 21.1986C21.3631 18.2701 14.0979 17.4216 8.46135 19.1326C7.73055 19.3534 6.95847 18.9414 6.7364 18.2117C6.51623 17.4809 6.92841 16.7103 7.65815 16.488C14.0971 14.534 22.1018 15.4803 27.5738 18.8432C28.2236 19.2433 28.4281 20.0944 28.0286 20.7434" fill="white"/>
<path d="M28.2157 15.7168C22.501 12.323 13.0748 12.0109 7.61941 13.6667C6.74317 13.9326 5.81676 13.438 5.5515 12.562C5.28602 11.6853 5.77992 10.7596 6.65658 10.4932C12.9192 8.59237 23.3294 8.95946 29.9083 12.8647C30.6965 13.3326 30.9547 14.3503 30.4877 15.1369C30.0203 15.9249 29.0018 16.1847 28.2157 15.7168" fill="white"/>
</g>
<defs>
<clipPath id="clip0_402_462">
<rect width="36" height="36" rx="18" fill="white"/>
</clipPath>
</defs>
</svg>
