<svg width="25" height="24" viewBox="0 0 25 24" fill="none" xmlns="http://www.w3.org/2000/svg">
<path d="M22.938 10V10.75C23.3522 10.75 23.688 10.4142 23.688 10H22.938ZM2.93799 9.5H2.18799C2.18799 9.91421 2.52377 10.25 2.93799 10.25V9.5ZM2.93799 14.5V13.75C2.52377 13.75 2.18799 14.0858 2.18799 14.5H2.93799ZM22.938 15H23.688C23.688 14.5858 23.3522 14.25 22.938 14.25V15ZM11.938 4.75C11.938 4.33579 11.6022 4 11.188 4C10.7738 4 10.438 4.33579 10.438 4.75H11.938ZM10.438 5.95C10.438 6.36421 10.7738 6.7 11.188 6.7C11.6022 6.7 11.938 6.36421 11.938 5.95H10.438ZM11.938 18.05C11.938 17.6358 11.6022 17.3 11.188 17.3C10.7738 17.3 10.438 17.6358 10.438 18.05H11.938ZM10.438 19.25C10.438 19.6642 10.7738 20 11.188 20C11.6022 20 11.938 19.6642 11.938 19.25H10.438ZM11.938 10.05C11.938 9.63577 11.6022 9.29999 11.188 9.29999C10.7738 9.29999 10.438 9.63577 10.438 10.05H11.938ZM10.438 13.95C10.438 14.3642 10.7738 14.7 11.188 14.7C11.6022 14.7 11.938 14.3642 11.938 13.95H10.438ZM21.188 12.5C21.188 11.5342 21.9722 10.75 22.938 10.75V9.25C21.1438 9.25 19.688 10.7058 19.688 12.5H21.188ZM23.688 10V9H22.188V10H23.688ZM23.688 9C23.688 7.00536 23.4568 5.45818 22.4683 4.46967C21.4798 3.48116 19.9326 3.25 17.938 3.25V4.75C19.9433 4.75 20.8962 5.01884 21.4077 5.53033C21.9192 6.04182 22.188 6.99464 22.188 9H23.688ZM17.938 3.25H7.93799V4.75H17.938V3.25ZM7.93799 3.25C5.94335 3.25 4.39616 3.48116 3.40766 4.46967C2.41915 5.45818 2.18799 7.00536 2.18799 9H3.68799C3.68799 6.99464 3.95682 6.04182 4.46832 5.53033C4.97981 5.01884 5.93263 4.75 7.93799 4.75V3.25ZM2.18799 9V9.5H3.68799V9H2.18799ZM2.93799 10.25C3.90377 10.25 4.68799 11.0342 4.68799 12H6.18799C6.18799 10.2058 4.7322 8.75 2.93799 8.75V10.25ZM4.68799 12C4.68799 12.9658 3.90377 13.75 2.93799 13.75V15.25C4.7322 15.25 6.18799 13.7942 6.18799 12H4.68799ZM2.18799 14.5V15H3.68799V14.5H2.18799ZM2.18799 15C2.18799 16.9946 2.41915 18.5418 3.40766 19.5303C4.39616 20.5188 5.94335 20.75 7.93799 20.75V19.25C5.93263 19.25 4.97981 18.9812 4.46832 18.4697C3.95682 17.9582 3.68799 17.0054 3.68799 15H2.18799ZM7.93799 20.75H17.938V19.25H7.93799V20.75ZM17.938 20.75C19.9326 20.75 21.4798 20.5188 22.4683 19.5303C23.4568 18.5418 23.688 16.9946 23.688 15H22.188C22.188 17.0054 21.9192 17.9582 21.4077 18.4697C20.8962 18.9812 19.9433 19.25 17.938 19.25V20.75ZM22.938 14.25C21.9722 14.25 21.188 13.4658 21.188 12.5H19.688C19.688 14.2942 21.1438 15.75 22.938 15.75V14.25ZM10.438 4.75V5.95H11.938V4.75H10.438ZM10.438 18.05V19.25H11.938V18.05H10.438ZM10.438 10.05V13.95H11.938V10.05H10.438Z" fill="black"/>
</svg>
