<svg width="27" height="17" viewBox="0 0 27 17" fill="none" xmlns="http://www.w3.org/2000/svg">
<path fill-rule="evenodd" clip-rule="evenodd" d="M11.9661 0.0752176C11.2133 0.17005 10.7808 0.253413 10.0618 0.442126C8.04217 0.972235 5.9879 2.04515 4.19054 3.50854C2.86992 4.5838 1.53676 5.99443 0.481673 7.43286C0.289824 7.69441 0.101836 7.97091 0.0639639 8.04728C-0.0224131 8.22128 -0.020985 8.77281 0.0662912 8.95006C0.146744 9.11337 0.806922 9.99735 1.27308 10.566C2.09279 11.5658 3.20675 12.679 4.19054 13.4814C6.28538 15.1898 8.68764 16.3403 11.0668 16.7746C11.9777 16.9409 12.6157 17 13.5 17C14.7 17 15.733 16.8645 16.9382 16.5492C18.9535 16.0217 21.0116 14.947 22.8095 13.4832C24.1301 12.4079 25.4632 10.9973 26.5183 9.55889C26.7102 9.29733 26.8982 9.02083 26.936 8.94446C27.0224 8.77047 27.021 8.21893 26.9337 8.04168C26.8533 7.87837 26.1931 6.99439 25.7269 6.42579C24.9072 5.42594 23.7932 4.31274 22.8095 3.51038C20.7146 1.80195 18.3124 0.651428 15.9332 0.217102C15.5986 0.156063 15.0937 0.0803649 14.8112 0.048922C14.1357 -0.0262724 12.6633 -0.012677 11.9661 0.0752176ZM14.9017 2.64643C15.8807 2.90899 16.9512 3.5712 17.6283 4.33316C18.7287 5.57146 19.2879 7.18909 19.1937 8.86133C19.1169 10.2256 18.5759 11.5589 17.6789 12.5942C16.99 13.3894 15.9275 14.0615 14.9005 14.3517C14.4287 14.485 14.2802 14.5007 13.5 14.4996C12.7284 14.4986 12.5659 14.4813 12.0983 14.3509C11.4338 14.1657 10.6368 13.7585 10.0883 13.324C7.91591 11.6032 7.18528 8.51976 8.33928 5.94301C8.61285 5.33222 8.94714 4.8109 9.37168 4.33316C10.1891 3.41337 11.456 2.7167 12.6846 2.51137C12.8567 2.48261 13.3069 2.4693 13.6851 2.48183C14.1904 2.4985 14.513 2.54214 14.9017 2.64643ZM13.0643 5.30867C11.8916 5.51752 10.9396 6.39138 10.5934 7.57687C10.4432 8.09153 10.4442 8.90239 10.5959 9.42713C10.8898 10.444 11.5575 11.1727 12.5205 11.5273C12.8758 11.6581 13.0317 11.6835 13.4812 11.6842C13.8743 11.6847 14.1117 11.6543 14.3688 11.5702C15.3288 11.2566 16.1124 10.4365 16.3976 9.44699C16.5575 8.89226 16.5838 8.47786 16.4932 7.93796C16.3788 7.25584 16.1157 6.72533 15.6448 6.22728C15.1819 5.73774 14.6699 5.45033 14.0535 5.33418C13.5885 5.24657 13.4353 5.24259 13.0643 5.30867Z" fill="#383838"/>
</svg>
